HIERARCHY
ROOT Hips
{
	OFFSET -0.179506 -22.333345 2.821913
	CHANNELS 6 Xposition Yposition Zposition Zrotation Yrotation Xrotation 
	JOINT LeftUpLeg
	{
		OFFSET 6.951974 -9.140623 -0.681533
		CHANNELS 3 Zrotation Yrotation Xrotation
		JOINT LeftLeg
		{
			OFFSET 3.427654 -37.519855 -0.449580
			CHANNELS 3 Zrotation Yrotation Xrotation
			JOINT LeftFoot
			{
				OFFSET -1.359570 -39.796059 -4.369333
				CHANNELS 3 Zrotation Yrotation Xrotation
				JOINT LeftToe
				{
					OFFSET 2.635814 -5.579078 11.928840
					CHANNELS 3 Zrotation Yrotation Xrotation
					End Site
					{
						OFFSET 0.000000 0.000000 0.000000
					}
				}
			}
		}
	}
	JOINT RightUpLeg
	{
		OFFSET -6.767048 -9.052170 -0.431982
		CHANNELS 3 Zrotation Yrotation Xrotation
		JOINT RightLeg
		{
			OFFSET -3.829005 -38.256897 -0.885003
			CHANNELS 3 Zrotation Yrotation Xrotation
			JOINT RightFoot
			{
				OFFSET 1.577377 -39.841461 -4.231180
				CHANNELS 3 Zrotation Yrotation Xrotation
				JOINT RightToe
				{
					OFFSET -2.537174 -4.814398 12.334795
					CHANNELS 3 Zrotation Yrotation Xrotation
					End Site
					{
						OFFSET 0.000000 0.000000 0.000000
					}
				}
			}
		}
	}
	JOINT Spine
	{
		OFFSET -0.253288 10.896323 -2.669631
		CHANNELS 3 Zrotation Yrotation Xrotation
		JOINT Spine1
		{
			OFFSET 0.548704 13.518043 0.109247
			CHANNELS 3 Zrotation Yrotation Xrotation
			JOINT Spine2
			{
				OFFSET 0.145701 5.292222 2.542457
				CHANNELS 3 Zrotation Yrotation Xrotation
				JOINT Neck
				{
					OFFSET -0.277840 21.387037 -4.285703
					CHANNELS 3 Zrotation Yrotation Xrotation
					JOINT Head
					{
						OFFSET 0.515184 6.496960 5.134897
						CHANNELS 3 Zrotation Yrotation Xrotation
						End Site
						{
							OFFSET 0.000000 0.000000 0.000000
						}
					}
				}
				JOINT LeftShoulder
				{
					OFFSET 7.884473 12.174932 -3.408961
					CHANNELS 3 Zrotation Yrotation Xrotation
					JOINT LeftArm
					{
						OFFSET 9.097692 3.046888 -0.886815
						CHANNELS 3 Zrotation Yrotation Xrotation
						JOINT LeftForeArm
						{
							OFFSET 25.961220 -1.277207 -2.745643
							CHANNELS 3 Zrotation Yrotation Xrotation
							JOINT LeftHand
							{
								OFFSET 24.923361 0.898606 -0.117091
								CHANNELS 3 Zrotation Yrotation Xrotation
								End Site
								{
									OFFSET 0.000000 0.000000 0.000000
								}
							}
						}
					}
				}
				JOINT RightShoulder
				{
					OFFSET -8.175920 11.883285 -3.861528
					CHANNELS 3 Zrotation Yrotation Xrotation
					JOINT RightArm
					{
						OFFSET -9.601238 3.255117 -0.914307
						CHANNELS 3 Zrotation Yrotation Xrotation
						JOINT RightForeArm
						{
							OFFSET -25.374195 -1.332924 -2.140099
							CHANNELS 3 Zrotation Yrotation Xrotation
							JOINT RightHand
							{
								OFFSET -25.529810 0.777228 -0.555919
								CHANNELS 3 Zrotation Yrotation Xrotation
								End Site
								{
									OFFSET 0.000000 0.000000 0.000000
								}
							}
						}
					}
				}
			}
		}
	}
}
MOTION
Frames: 17
Frame Time: 0.033333
-42.294743 -294.662537 91.486366 179.031167 0.455939 87.008446 -2.843962 1.985287 5.474923 -2.883298 -4.878837 1.948566 4.900497 13.092777 -13.518677 nan nan nan 0.420146 -1.215328 3.474259 3.567439 2.119413 3.704889 1.366777 -5.662757 -11.194343 nan nan nan 0.836567 1.457710 6.783138 1.401107 -3.136947 7.531539 0.609416 -0.770075 -4.048702 -0.760935 -0.163237 1.264139 3.059837 2.129744 2.834037 -28.713239 -0.424377 1.814553 -55.391849 -4.542462 13.420510 3.726408 -25.422256 7.074741 -8.610546 -12.087654 2.301501 26.958251 5.059998 3.640482 55.578945 1.838084 14.702399 -8.653411 24.948148 -1.388775 8.830824 11.180387 -2.025923 
-42.340084 -294.604156 91.462891 178.974340 0.397831 87.110052 -2.946866 1.894771 5.346316 -2.901357 -4.714064 2.074693 4.797644 13.283525 -13.600385 nan nan nan 0.331627 -1.189139 3.385543 3.550489 2.075935 3.787983 1.667131 -5.707717 -11.182959 nan nan nan 0.797555 1.491948 6.682318 1.353911 -3.062582 7.444684 0.582791 -0.713611 -3.945766 -0.632480 -0.160245 1.075216 3.092723 2.185553 3.012967 -28.529992 -0.366249 1.779824 -55.482078 -4.630285 13.505415 3.596150 -25.331436 7.371696 -8.619306 -12.169587 2.255961 26.851802 4.958796 3.655442 55.804838 1.844129 14.767317 -8.783501 24.919694 -1.443151 8.764163 11.270248 -2.284108 
-42.382500 -294.531128 91.449478 178.926076 0.368851 87.173623 -2.966118 1.890303 5.272257 -2.971289 -4.641482 2.184869 4.773443 13.319943 -13.670861 nan nan nan 0.280668 -1.163007 3.371242 3.523310 2.111271 3.779900 1.740042 -5.667211 -11.184354 nan nan nan 0.734619 1.550578 6.607909 1.375052 -3.030969 7.485641 0.597643 -0.678825 -3.965975 -0.582830 -0.130764 1.143763 3.147997 2.211911 2.831062 -28.498293 -0.324933 1.713915 -55.499798 -4.615315 13.546009 3.516479 -25.288691 7.475056 -8.761880 -12.253815 2.371703 26.883333 4.925347 3.609654 55.748248 1.834603 14.761778 -8.760289 24.794918 -1.433212 8.838309 11.306603 -2.143206 
-42.418671 -294.500061 91.427536 178.872646 0.303239 87.276554 -3.027945 1.857544 5.040147 -3.033672 -4.533367 2.420469 4.761710 13.364295 -13.777572 nan nan nan 0.230413 -1.095458 3.289181 3.421367 2.218642 3.775484 1.752269 -5.641163 -11.232765 nan nan nan 0.661183 1.592688 6.540510 1.380144 -3.049635 7.546924 0.585881 -0.646127 -3.993196 -0.609383 -0.136898 1.114505 3.167417 2.187221 2.610279 -28.454350 -0.289812 1.625623 -55.523801 -4.622855 13.584164 3.466774 -25.287123 7.450564 -8.882021 -12.321858 2.447229 26.947174 4.945593 3.534869 55.649973 1.869065 14.775986 -8.683909 24.742399 -1.393283 8.920020 11.344295 -1.904738 
-42.450455 -294.433716 91.390610 178.962979 0.299943 87.294632 -3.084826 1.765112 4.931936 -3.016526 -4.489770 2.648608 4.760612 13.469663 -14.008296 nan nan nan 0.256079 -1.075367 3.351512 3.340568 2.210595 3.779439 1.759589 -5.694764 -11.272481 nan nan nan 0.677630 1.548382 6.461374 1.371405 -3.141132 7.604883 0.574888 -0.659405 -3.856957 -0.629539 0.034083 1.036772 3.170589 2.217761 2.481237 -28.375647 -0.274091 1.592683 -55.661931 -4.690003 13.496452 3.581517 -25.323609 7.327441 -9.040355 -12.340720 2.291164 26.860514 5.014631 3.527561 55.798393 1.954100 14.737294 -8.827693 24.847543 -1.508255 8.966389 11.401364 -2.058572 
-42.561081 -294.450684 91.309128 178.582207 -0.005784 88.040190 -3.738046 1.829756 3.765181 -2.802676 -4.423072 3.338368 5.577460 13.968225 -14.729387 nan nan nan -0.222105 -1.987091 2.548201 3.350246 3.242033 3.715677 1.197449 -5.385989 -11.517578 nan nan nan 0.439415 2.246194 4.627189 1.570479 -3.510251 9.898841 0.480269 -0.427467 -5.254259 -1.068355 0.479226 2.392123 3.332655 1.994373 1.498349 -28.143001 -0.633278 1.197897 -56.696457 -4.761380 14.178597 4.459236 -23.846672 4.652579 -8.948038 -12.922713 3.304203 26.922354 4.614078 3.664810 57.985515 1.102694 12.608666 -11.832351 24.821425 -8.819949 5.454837 12.516376 -3.228295 
-42.609665 -294.349915 91.294464 178.688725 -0.045966 88.104239 -3.838527 1.778467 3.615799 -2.825688 -4.537412 3.617351 5.711877 14.020233 -14.840376 nan nan nan -0.319091 -2.162339 2.559137 3.345451 3.330256 3.704547 1.159828 -5.429835 -11.606253 nan nan nan 0.416436 2.296687 4.442765 1.596485 -3.632016 10.147302 0.479698 -0.431319 -5.528331 -1.078405 0.235958 2.236604 3.240459 1.883462 1.886955 -28.215815 -0.655598 1.279693 -56.641205 -4.605380 14.280989 4.442183 -23.918397 4.542971 -8.686284 -12.838614 3.371852 26.768020 4.675330 3.889561 58.105669 1.035194 12.530673 -11.713166 24.969314 -9.186452 5.366593 12.600236 -3.470493 
-42.629707 -294.262604 91.300690 178.698924 -0.037288 88.084039 -3.864335 1.771793 3.589098 -2.814706 -4.644837 3.843775 5.761827 14.014625 -14.891564 nan nan nan -0.304674 -2.133604 2.620109 3.302353 3.334851 3.762604 1.120110 -5.458896 -11.687014 nan nan nan 0.406866 2.331213 4.473391 1.632841 -3.626518 10.169027 0.473807 -0.426648 -5.617887 -1.087127 0.075034 2.131796 3.156659 1.864172 2.042061 -28.268082 -0.657869 1.258684 -56.548559 -4.520830 14.434019 4.326291 -23.908084 4.684491 -8.148098 -12.661626 3.463955 26.737654 4.605135 3.886170 58.113233 1.066138 12.502219 -11.558707 24.932678 -9.408147 5.302025 12.689867 -3.722922 
-42.646294 -294.155365 91.305649 178.723664 -0.018748 88.040094 -3.848181 1.793141 3.637621 -2.822776 -4.719226 4.027032 5.837523 14.062165 -15.080707 nan nan nan -0.297751 -2.111056 2.711547 3.344216 3.246248 3.863346 1.122981 -5.532422 -11.722438 nan nan nan 0.374664 2.355407 4.465523 1.684028 -3.567749 10.193968 0.490411 -0.496205 -5.552884 -1.103597 -0.028109 2.011070 3.108428 1.781188 2.045070 -28.340043 -0.624434 1.256358 -56.455289 -4.555618 14.402977 4.232874 -23.902438 4.782125 -7.880165 -12.532150 3.442189 26.770076 4.494679 3.800701 58.002618 1.153001 12.472287 -11.349433 24.939180 -9.323210 5.375088 12.680945 -3.742138 
-42.673588 -294.069092 91.299706 178.677606 0.026724 88.090357 -3.840539 1.789484 3.557343 -2.781740 -4.737361 4.203511 5.925190 14.156943 -15.272321 nan nan nan -0.305604 -2.276380 2.713690 3.402376 3.346080 3.884535 1.178294 -5.531061 -11.755586 nan nan nan 0.413956 2.412841 4.393416 1.700767 -3.561074 10.241110 0.484674 -0.486746 -5.517399 -1.095684 -0.055477 1.966411 3.104899 1.762120 1.950519 -28.382243 -0.620539 1.237318 -56.448364 -4.570779 14.345177 4.188588 -23.923989 4.804337 -7.969526 -12.355001 3.469812 26.746310 4.475235 3.739367 57.986519 1.186068 12.508743 -11.404762 24.965911 -8.951323 5.711105 12.429221 -3.598651 
-42.587639 -293.732910 91.290215 -179.869693 0.319330 88.712639 -3.396912 1.225696 2.700836 -2.902242 -5.271594 4.992889 6.191817 13.876480 -15.775208 nan nan nan 0.254084 -2.550462 2.886860 3.277802 2.973145 2.969764 0.594769 -6.198955 -11.967556 nan nan nan 0.017549 2.125135 2.426261 2.310137 -4.578320 12.040603 0.626732 -0.602675 -6.173057 -0.990714 0.534501 2.763818 3.031226 1.538581 1.036586 -28.718810 -0.393005 0.790806 -56.622780 -4.396484 14.285762 4.777965 -23.482166 3.973639 -10.123448 -12.390335 5.889795 27.093595 4.564625 3.408559 57.385174 0.509740 12.403221 -12.569538 24.697978 -7.339735 9.399085 12.611354 0.801128 
-42.627193 -293.635986 91.299667 -179.872964 0.452206 88.631777 -3.317626 1.144026 2.731204 -2.892752 -5.204890 5.236925 6.252936 13.964615 -16.047127 nan nan nan 0.413738 -2.285823 2.967789 3.237023 2.897818 3.096093 0.510493 -6.299886 -12.205089 nan nan nan 0.204148 2.040557 2.534650 2.297352 -4.555525 12.025732 0.555522 -0.538119 -6.283224 -0.931058 0.434374 2.652740 3.072328 1.479444 1.224986 -28.688876 -0.322065 0.887115 -56.686865 -4.330096 14.216799 4.836057 -23.591588 4.137713 -10.060105 -12.501018 5.792806 27.099039 4.558545 3.442290 57.377632 0.491741 12.481088 -12.600523 24.629205 -6.758169 9.101182 12.633083 1.002591 
-42.642967 -293.534637 91.296844 -179.923826 0.544518 88.639791 -3.254668 1.137007 2.646461 -2.903534 -5.138727 5.523570 6.181064 14.092704 -16.360345 nan nan nan 0.598129 -2.245250 2.835878 3.090326 2.911367 3.440157 0.422936 -6.366987 -12.419468 nan nan nan 0.251126 2.081087 2.530363 2.335429 -4.487367 12.030847 0.559634 -0.523421 -6.359019 -0.964564 0.447939 2.709909 3.201006 1.423818 1.213113 -28.634177 -0.350728 0.837054 -56.754266 -4.210421 14.286429 4.844563 -23.568813 4.127711 -10.101874 -12.614792 5.738664 27.079762 4.529877 3.503342 57.380758 0.422048 12.432195 -12.586678 24.703653 -6.586237 8.997654 12.519345 1.075992 
-42.677036 -293.436829 91.293259 179.979666 0.619109 88.695926 -3.223873 1.171746 2.510763 -2.865534 -5.011690 5.832737 6.124950 14.189925 -16.643716 nan nan nan 0.736963 -2.166258 2.635801 2.962192 2.888362 3.825333 0.407470 -6.357616 -12.600556 nan nan nan 0.281232 2.194899 2.384364 2.412410 -4.357294 12.120462 0.575568 -0.590573 -6.310641 -0.943842 0.524278 2.887609 3.232164 1.409304 0.910346 -28.616109 -0.402602 0.696266 -56.902969 -4.182858 14.385708 4.973697 -23.394367 3.955559 -10.345080 -12.650494 5.755454 26.970548 4.444008 3.407445 57.459537 0.340251 12.314596 -12.637876 24.796771 -6.886524 9.135547 12.518143 1.095348 
-42.720840 -293.265137 91.280479 -179.832429 0.542048 88.635007 -3.371532 1.113128 2.597282 -2.755640 -5.027893 6.068856 6.147356 14.107486 -16.882386 nan nan nan 0.606427 -2.312054 2.862688 2.984725 2.856763 3.811899 0.387780 -6.373374 -12.743848 nan nan nan 0.107198 2.255073 2.153652 2.458071 -4.504434 12.363572 0.602034 -0.619694 -6.125790 -0.760639 0.807968 3.069672 3.183585 1.413327 0.550222 -28.520701 -0.362671 0.526776 -57.092688 -4.238986 14.345997 5.140017 -23.281992 3.772828 -10.686601 -12.749713 5.977249 26.925091 4.348957 3.161352 57.572755 0.193072 12.231092 -12.837356 24.955087 -7.192056 9.356838 12.601037 1.336212 
-42.777000 -293.291412 91.320984 179.860086 0.753887 88.719889 -3.200215 1.063910 2.386559 -2.779348 -4.979033 6.275969 6.242475 14.323479 -16.905967 nan nan nan 0.876766 -2.039277 2.418813 2.945708 2.928398 4.352549 0.442257 -6.440928 -12.899675 nan nan nan 0.387376 2.262184 2.485776 2.485341 -4.241958 11.944418 0.566441 -0.516294 -6.229202 -0.817456 0.460737 2.848955 3.139950 1.354913 0.985508 -28.680963 -0.337190 0.654647 -57.089767 -4.177550 14.350528 5.330180 -23.328694 3.955159 -10.750701 -12.725747 5.807976 26.869564 4.350976 3.157169 57.610334 0.034540 12.416047 -13.088884 25.032238 -6.265950 9.718401 12.276260 1.049079 
-42.845413 -293.241608 91.332642 179.769306 0.869146 88.825392 -3.154797 1.023018 2.163225 -2.776214 -4.968977 6.545556 6.251889 14.502152 -16.992933 nan nan nan 1.036945 -2.021843 2.147001 2.830251 3.032559 4.675498 0.418844 -6.456812 -13.058825 nan nan nan 0.548256 2.334309 2.562407 2.533287 -4.144184 11.890383 0.553971 -0.564087 -6.453265 -0.930194 0.181331 2.718221 3.140843 1.396734 1.292556 -28.812136 -0.275634 0.658977 -57.039060 -4.027976 14.460881 5.345167 -23.445795 3.965170 -10.685122 -12.643363 5.780302 26.862225 4.344582 3.217675 57.528176 -0.073202 12.399789 -12.958814 24.985987 -6.308175 9.840438 12.253168 0.967037 
